<?xml version="1.0" encoding="UTF-8"?>
<svg width="28" height="28" xmlns="http://www.w3.org/2000/svg">

    <defs>
        <clipPath id="roundedClip">
            <rect width="28" height="28" rx="5.6" ry="5.6" />
        </clipPath>

        <linearGradient id="bgGradient" x1="0" y1="0" x2="0" y2="1">
            <stop offset="0%" stop-color="#FFFFFF" />
            <stop offset="100%" stop-color="#F0F0F0" />
        </linearGradient>

        <linearGradient id="fileGradient" x1="0" y1="0" x2="0" y2="1">
            <stop offset="0%" stop-color="#006eff" />
            <stop offset="100%" stop-color="#114283" />
        </linearGradient>
    </defs>

    <g clip-path="url(#roundedClip)">
        <rect width="28" height="28" fill="url(#bgGradient)" />

        <g transform="translate(4 4) scale(0.75)">
            <!-- file -->
            <path fill-rule="evenodd" style="fill:url(#fileGradient)"
                d="M3 3a2 2 0 0 1 2-2h9.982a2 2 0 0 1 1.414.586l4.018 4.018A2 2 0 0 1 21 7.018V21a2 2 0 0 1-2 2H5a2 2 0 0 1-2-2Zm2-.5a.5.5 0 0 0-.5.5v18a.5.5 0 0 0 .5.5h14a.5.5 0 0 0 .5-.5V8.5h-4a2 2 0 0 1-2-2v-4Zm10 0v4a.5.5 0 0 0 .5.5h4a.5.5 0 0 0-.146-.336l-4.018-4.018A.5.5 0 0 0 15 2.5Z" />

            <!-- markdown logo -->
            <g transform="translate(6.6 9.6) scale(0.45)" style="fill:url(#fileGradient)">
                <path
                    d="M22.289 4.5A1.71 1.71 0 0 1 24 6.226v11.557c0 .946-.766 1.726-1.726 1.726H1.726A1.74 1.74 0 0 1 0 17.768V6.226C0 5.28.78 4.5 1.726 4.5Zm-8.781 12.007V7.501h-3.002l-2.251 3.002-2.252-3.002H3.002v9.006h3.001v-4.503l2.252 2.882 2.251-2.882v4.503Zm4.489.75 3.767-5.253h-2.251V7.501h-3.002v4.503h-2.252Z" />
            </g>

            <!-- share icon -->
            <g transform="matrix(0.6889485,0,0,0.6889485,14.24018,12.884196)" style="fill:#4b5563">
                <path
                    d="m5.5,9.75v10.5c0,0.138.112,0.25.25.25h12.5a.25.25 0 0 0 .25-.25V9.75a.25.25 0 0 0-.25-.25h-2.5a.75.75 0 0 1 0-1.5h2.5c.966,0 1.75.784 1.75 1.75v10.5a1.75,1.75 0 0 1-1.75,1.75H5.75A1.75,1.75 0 0 1 4,20.25V9.75C4,8.784 4.784,8 5.75,8h2.5a.75.75 0 0 1 0,1.5H5.75a.25.25 0 0 0-.25.25zm7.03-8.53 3.25,3.25a.749.749 0 1 1-1.06,1.06L12.75,3.56v10.69a.75.75 0 0 1-1.5,0V3.56L9.28,5.53a.751.751 0 1 1-1.06-1.06l3.25-3.25a.75.75 0 0 1 1.06,0z" />
            </g>
        </g>
    </g>
</svg>